<?xml version="1.0" standalone="no"?>
<!DOCTYPE svg PUBLIC "-//W3C//DTD SVG 20010904//EN"
 "http://www.w3.org/TR/2001/REC-SVG-20010904/DTD/svg10.dtd">
<svg version="1.0" xmlns="http://www.w3.org/2000/svg"
 width="445.000000pt" height="450.000000pt" viewBox="0 0 445.000000 450.000000"
 preserveAspectRatio="xMidYMid meet">

<g transform="translate(0.000000,450.000000) scale(0.100000,-0.100000)"
fill="#000000" stroke="none">
<path d="M0 2250 l0 -2250 2225 0 2225 0 0 2250 0 2250 -2225 0 -2225 0 0
-2250z m2428 2050 c432 -47 857 -237 1172 -526 448 -411 688 -982 667 -1584
-6 -168 -22 -294 -52 -410 -25 -101 -78 -260 -87 -260 -4 0 4 33 18 73 130
377 143 828 35 1217 -63 225 -189 480 -334 675 -76 101 -286 311 -395 393
-397 302 -886 449 -1374 412 -492 -37 -921 -230 -1277 -575 -177 -171 -305
-347 -414 -569 -234 -476 -268 -1040 -93 -1554 14 -39 21 -72 16 -72 -11 0
-62 157 -89 275 -71 303 -69 653 6 955 94 384 311 747 613 1025 311 284 745
481 1155 524 117 12 322 12 433 1z m66 -96 c349 -54 620 -167 901 -374 359
-266 613 -646 729 -1090 76 -292 78 -657 5 -955 -24 -97 -79 -254 -91 -261
-22 -14 -19 10 10 93 75 212 104 392 104 643 0 258 -30 435 -117 676 -142 391
-453 765 -815 981 -114 68 -164 92 -300 146 -228 90 -438 129 -700 129 -533 0
-1011 -200 -1376 -573 -300 -308 -474 -653 -540 -1070 -22 -141 -22 -437 0
-578 20 -127 57 -274 91 -364 29 -77 30 -87 12 -87 -26 0 -100 252 -132 450
-23 141 -23 437 0 575 87 529 344 961 758 1277 262 200 547 322 887 378 141
24 435 26 574 4z m48 -240 c24 -7 31 -34 13 -54 -11 -12 -13 -20 -6 -25 17
-10 13 -43 -8 -54 -19 -10 -88 -4 -96 9 -2 4 1 37 7 74 l11 67 31 -6 c17 -4
38 -9 48 -11z m-274 -22 c23 -29 14 -42 -28 -42 -22 0 -40 -5 -40 -10 0 -17
29 -23 45 -10 20 17 32 5 15 -15 -15 -18 -61 -20 -78 -3 -7 7 -12 27 -12 44 0
57 63 80 98 36z m-192 9 c21 18 30 2 11 -19 -10 -10 -17 -35 -17 -55 0 -25 -5
-37 -14 -37 -17 0 -27 101 -11 112 5 4 12 3 13 -3 3 -6 9 -5 18 2z m-138 -27
c32 -22 27 -42 -13 -50 -19 -3 -35 -10 -35 -15 0 -16 30 -22 45 -9 9 7 19 10
23 6 10 -11 -28 -36 -54 -36 -24 0 -38 14 -48 47 -5 17 -1 29 18 48 29 29 34
30 64 9z m-158 -60 c24 -79 24 -74 5 -74 -8 0 -17 11 -21 25 -7 28 -12 29 -47
16 -20 -8 -23 -14 -19 -41 7 -50 -18 -33 -39 26 -22 62 -23 84 -4 84 8 0 15
-6 15 -12 0 -28 17 -39 44 -32 25 6 27 10 21 40 -4 26 -3 34 9 34 10 0 22 -23
36 -66z m940 16 c39 -39 22 -67 -29 -49 -36 13 -50 6 -32 -14 6 -8 22 -12 36
-9 27 5 35 -12 9 -22 -27 -10 -43 -7 -64 14 -25 25 -25 41 1 74 24 31 52 33
79 6z m258 -60 c46 -28 58 -59 38 -98 -21 -41 -56 -50 -107 -27 -21 10 -39 20
-39 22 0 11 61 123 68 123 4 0 22 -9 40 -20z m-1571 -126 c2 -5 -10 -18 -27
-27 -32 -19 -39 -37 -15 -37 8 0 19 9 25 20 12 23 30 27 30 7 0 -24 -37 -49
-67 -45 -57 6 -65 86 -10 108 22 8 57 -6 64 -26z m106 -36 c-9 -17 -21 -6 -25
22 -6 37 15 47 23 11 3 -14 4 -29 2 -33z m1610 34 c-1 -5 7 -8 19 -4 15 3 19
1 16 -9 -3 -8 -14 -13 -26 -11 -14 2 -26 -7 -38 -28 -19 -31 -29 -37 -39 -20
-8 13 44 92 58 87 7 -3 11 -9 10 -15z m-1889 -78 c-4 -15 0 -34 11 -50 30 -46
1 -50 -35 -5 l-32 41 23 24 c28 29 42 25 33 -10z m2034 -6 c19 -19 14 -48 -15
-86 -22 -29 -28 -32 -37 -20 -6 8 -19 17 -29 21 -25 10 -32 36 -14 55 13 13
21 13 42 4 15 -7 31 -10 36 -6 14 8 -1 26 -16 20 -8 -3 -19 2 -25 10 -10 12
-8 14 17 14 16 0 34 -5 41 -12z m-1272 -168 c12 0 70 43 92 69 l24 26 -6 -42
c-3 -23 -9 -48 -12 -57 -5 -14 8 -16 112 -16 l119 -1 -54 -49 c-68 -62 -174
-118 -276 -146 l-80 -21 50 -7 c126 -16 156 -26 176 -59 10 -18 19 -43 19 -57
0 -32 -32 -84 -64 -106 -14 -9 -24 -20 -21 -24 3 -5 -16 -26 -42 -47 -26 -21
-60 -51 -75 -67 l-29 -29 11 29 c16 41 28 53 83 80 27 14 47 28 44 30 -3 3
-31 -9 -63 -27 l-59 -32 63 64 c48 50 62 71 62 95 0 16 -5 35 -12 42 -15 15
-74 16 -83 2 -4 -7 3 -9 22 -5 26 5 26 5 5 -5 -13 -5 -28 -7 -33 -4 -6 3 -25
-6 -44 -21 -25 -18 -35 -22 -35 -12 0 23 -29 42 -42 29 -8 -8 -7 -13 5 -18 20
-7 22 -45 5 -62 -7 -7 -25 -12 -40 -12 -20 0 -45 -16 -88 -55 -62 -57 -88 -69
-136 -63 -27 3 -29 6 -26 41 2 20 -2 37 -7 37 -6 0 -33 -37 -62 -82 -28 -46
-49 -76 -46 -67 3 10 11 36 18 60 7 23 30 61 51 83 l38 40 28 -27 c37 -35 45
-34 37 5 -6 28 -5 30 11 23 39 -15 49 -9 77 44 32 64 36 126 10 139 -10 5 -40
12 -68 15 -27 4 -66 9 -87 13 -33 6 -37 4 -40 -17 -3 -22 -6 -20 -25 16 -21
40 -21 40 -31 15 -9 -24 -9 -24 -23 13 -7 20 -17 37 -21 37 -17 0 -6 -58 23
-120 l30 -65 -29 28 c-41 40 -78 111 -92 181 -11 55 -11 61 6 74 43 32 156 82
196 87 27 3 34 2 19 -3 -36 -11 -49 -38 -29 -58 15 -15 19 -15 52 5 32 20 36
21 36 6 0 -14 6 -16 33 -11 17 3 66 9 107 12 95 8 129 32 173 121 l32 65 3
-66 c2 -36 5 -66 8 -66z m-847 66 c18 -19 30 -39 26 -45 -3 -6 -11 -9 -16 -6
-5 4 -9 -1 -9 -9 0 -24 -34 -38 -56 -22 -16 13 -17 17 -4 42 8 16 16 32 18 37
2 4 -3 7 -12 7 -9 0 -16 -8 -16 -19 0 -25 -16 -36 -23 -17 -7 17 29 66 47 66
7 0 27 -15 45 -34z m2243 -11 c7 -9 21 -24 30 -33 16 -16 14 -20 -27 -65 -25
-26 -51 -47 -58 -47 -27 0 -67 41 -67 67 0 21 2 24 15 13 8 -7 15 -18 15 -26
0 -17 18 -27 37 -20 13 5 11 10 -11 27 -32 26 -33 43 -1 74 28 29 49 32 67 10z
m-2370 -114 c22 -38 25 -51 15 -59 -8 -7 -20 -6 -37 3 -38 22 -43 18 -20 -15
37 -52 12 -61 -74 -25 -31 13 -36 18 -25 31 10 12 16 12 45 -5 39 -23 42 -19
15 16 -33 41 -8 69 33 38 32 -24 39 -17 16 15 -19 27 -20 50 -2 50 4 0 19 -22
34 -49z m1398 -2 c25 -6 81 -16 125 -23 l80 -12 -50 -26 c-114 -58 -243 -73
-340 -39 l-50 18 30 15 c17 9 47 30 69 47 42 33 65 37 136 20z m1093 -20 c27
-15 37 -28 37 -53 0 -52 -75 -76 -104 -34 -22 31 -20 45 9 73 28 29 29 29 58
14z m-812 -55 c30 -9 92 -38 139 -64 47 -27 119 -64 162 -83 45 -21 81 -44 88
-58 19 -35 100 -118 146 -150 31 -21 46 -41 58 -76 9 -26 31 -62 48 -80 18
-18 28 -33 24 -33 -5 0 10 -20 32 -44 29 -31 43 -57 51 -97 7 -30 18 -64 27
-76 8 -13 10 -23 4 -23 -5 0 -1 -15 10 -32 15 -24 20 -51 20 -101 0 -37 7 -84
15 -103 8 -20 12 -40 9 -45 -2 -5 1 -35 7 -68 11 -52 10 -65 -4 -98 -11 -25
-16 -64 -16 -115 1 -69 -2 -83 -30 -132 -19 -32 -34 -76 -38 -106 -3 -29 -9
-46 -13 -39 -5 6 -15 -20 -25 -62 -9 -40 -21 -79 -27 -86 -6 -7 -32 -13 -58
-13 l-48 0 -11 50 c-6 28 -11 60 -11 71 0 33 88 159 111 159 5 0 13 -19 19
-42 13 -47 3 -104 -31 -170 -31 -60 -17 -56 17 4 54 99 55 102 18 208 -18 52
-33 88 -34 80 -3 -26 -18 33 -19 76 -1 44 25 144 38 144 4 0 13 -12 20 -26 10
-22 8 -31 -10 -62 l-22 -37 31 35 c29 33 31 34 48 18 10 -9 22 -47 29 -85 l11
-68 8 49 c7 44 5 52 -23 92 -83 115 -86 121 -83 192 3 83 11 122 23 122 5 0
22 -12 39 -27 28 -26 31 -36 42 -132 9 -83 13 -100 21 -80 5 13 7 58 4 99 l-6
75 -75 70 c-84 78 -106 118 -106 196 0 55 1 56 67 32 28 -10 13 2 -44 36 -29
17 -59 28 -66 25 -25 -9 -102 63 -167 155 -23 33 -23 33 -1 27 11 -3 30 -9 41
-12 13 -3 30 -27 46 -62 25 -58 59 -102 78 -102 5 0 -4 14 -21 31 -31 30 -71
124 -59 137 6 5 53 -4 111 -23 16 -5 17 -5 4 4 -8 5 -48 19 -88 30 -40 11 -83
23 -94 26 -18 5 -19 4 -7 -5 22 -16 -24 -3 -71 21 -30 15 -153 139 -145 146 1
1 19 -2 40 -8 24 -7 44 -21 58 -42 19 -30 21 -17 3 26 -6 15 0 17 52 17 52 0
66 -4 103 -32 83 -63 87 -65 56 -28 -42 51 -56 59 -137 71 -142 22 -175 36
-242 96 -34 32 -63 60 -65 64 -6 13 112 21 142 9 17 -6 59 -31 95 -56 46 -32
55 -36 31 -14 -19 17 -59 45 -88 61 l-53 31 -138 -7 c-154 -8 -186 -2 -260 48
l-44 30 39 12 c21 6 53 19 69 28 38 21 58 21 126 1z m-467 -39 c27 -8 81 -15
120 -16 l71 -1 -40 -13 c-22 -8 -80 -14 -128 -14 -56 -1 -86 -5 -82 -11 4 -6
-18 -10 -59 -10 -36 0 -67 4 -70 9 -8 13 39 23 82 16 36 -5 36 -5 9 6 l-29 11
29 19 c34 23 35 23 97 4z m259 -39 c40 -31 78 -46 142 -57 41 -7 34 -7 -40 -5
-86 4 -205 35 -205 55 0 7 44 27 63 30 5 1 23 -10 40 -23z m-1624 -5 c11 -7
10 -15 -9 -41 -23 -33 -22 -47 5 -37 8 4 15 15 15 26 0 11 5 23 10 26 17 10
11 -47 -7 -67 -21 -24 -48 -23 -73 2 -47 47 4 126 59 91z m2779 -35 c26 -34
18 -54 -32 -84 -49 -29 -54 -6 -7 35 29 26 33 34 22 42 -10 6 -27 3 -52 -10
-25 -12 -40 -15 -44 -8 -8 13 -5 16 42 45 21 12 41 20 44 16 3 -4 15 -20 27
-36z m-1253 9 l30 -13 -31 -1 c-17 -1 -47 2 -65 6 -33 7 -33 7 -9 14 36 10 42
10 75 -6z m-712 -40 c26 -3 47 -10 47 -14 0 -5 -40 -41 -89 -80 -49 -39 -110
-95 -135 -123 l-46 -53 0 32 c0 52 17 82 88 156 40 42 62 72 55 74 -22 8 -14
24 10 19 12 -3 43 -8 70 -11z m572 4 c11 1 45 4 75 6 41 4 64 1 90 -12 49 -25
49 -47 2 -93 -42 -39 -105 -65 -182 -75 l-45 -6 51 24 c56 27 84 58 84 95 0
22 -5 20 -56 -28 -31 -28 -79 -62 -106 -76 l-49 -25 25 44 c29 49 34 108 11
127 -28 24 -17 33 33 26 26 -4 56 -7 67 -7z m282 -28 c23 -11 49 -31 59 -46
16 -25 16 -30 3 -54 -22 -40 -74 -61 -149 -61 -37 0 -70 4 -75 9 -10 9 -129
-25 -174 -49 -16 -8 -19 -8 -15 3 3 8 15 19 27 26 30 16 167 49 161 39 -18
-29 59 16 90 52 30 37 33 56 9 82 -15 17 -15 18 3 18 10 0 38 -9 61 -19z m291
-35 c31 -29 66 -58 77 -65 18 -11 17 -12 -8 -6 -28 6 -139 69 -187 105 l-25
20 43 0 c39 0 49 -6 100 -54z m-122 8 l29 -24 -49 15 c-27 8 -55 20 -63 28
-24 24 51 8 83 -19z m-976 1 c0 -14 -141 -146 -150 -140 -16 10 16 50 79 100
53 42 71 52 71 40z m960 -45 c70 -66 7 -130 -113 -114 l-49 7 45 25 c50 27 79
74 58 95 -37 37 18 25 59 -13z m-1950 15 c7 -9 18 -14 24 -12 21 8 46 -14 46
-39 0 -24 -25 -84 -35 -84 -4 0 -112 58 -123 66 -5 3 18 46 36 67 19 21 36 22
52 2z m1313 -42 c0 -22 -16 -43 -76 -98 -41 -38 -82 -83 -91 -100 -8 -16 -15
-24 -16 -17 -1 33 36 83 96 132 63 52 82 83 69 117 -5 14 -3 15 6 6 6 -6 12
-24 12 -40z m-35 -9 c-19 -19 -38 -11 -38 16 0 24 21 31 40 14 12 -12 12 -16
-2 -30z m1717 12 c8 -13 13 -31 9 -40 -8 -20 -24 -11 -24 15 0 10 -4 19 -10
19 -5 0 -10 -16 -10 -35 0 -23 -6 -38 -15 -42 -21 -8 -55 25 -55 53 0 24 19
44 21 22 1 -7 2 -19 3 -27 0 -8 7 -16 15 -19 10 -3 12 2 8 24 -3 15 -3 34 0
41 8 21 41 15 58 -11z m-1766 -25 c21 -21 18 -31 -11 -31 -13 0 -18 7 -18 25
0 30 4 31 29 6z m857 -52 c24 -47 15 -72 -29 -86 -34 -11 -46 -10 -104 10 -81
27 -94 47 -29 45 40 -2 51 2 78 30 25 25 30 34 20 44 -24 24 -12 29 18 8 17
-12 37 -35 46 -51z m-936 32 c0 -12 -20 -25 -27 -18 -7 7 6 27 18 27 5 0 9 -4
9 -9z m-440 -30 c-6 -12 -10 -52 -9 -89 2 -68 -12 -118 -47 -165 -16 -22 -16
-21 -10 13 4 19 18 52 31 72 14 21 25 41 25 45 0 4 -12 -10 -26 -31 l-27 -39
-18 24 c-22 29 -33 72 -24 99 6 19 105 103 113 95 2 -2 -1 -13 -8 -24z m1453
18 c24 -11 66 -69 50 -69 -5 0 -27 18 -48 40 -41 42 -41 47 -2 29z m-1063 -46
c0 -22 -2 -25 -10 -13 -8 13 -12 13 -34 0 -90 -55 -114 -69 -136 -74 -22 -6
-21 -5 5 10 17 9 51 36 77 60 57 53 98 60 98 17z m590 11 c-30 -7 -56 -11 -59
-9 -8 9 44 24 79 23 31 0 28 -2 -20 -14z m480 -26 c72 -99 14 -162 -103 -110
-62 27 -70 44 -18 36 72 -11 112 37 81 97 -20 36 9 20 40 -23z m-320 13 c0 -5
-10 -11 -22 -14 -13 -2 -32 -8 -43 -13 -18 -7 -18 -6 -7 9 12 14 23 18 65 26
4 0 7 -3 7 -8z m-1247 -131 c8 -19 18 -55 22 -80 5 -39 1 -55 -33 -125 -21
-44 -42 -103 -46 -130 -9 -58 -44 -155 -56 -155 -23 0 -19 42 10 93 21 37 32
73 36 118 5 48 13 73 34 99 27 35 61 94 43 75 -5 -5 -27 -32 -48 -58 l-39 -48
-13 23 c-10 16 -13 17 -8 4 19 -63 24 -105 14 -141 -9 -30 -41 -91 -67 -125
-6 -8 -52 54 -52 71 0 8 11 48 25 88 13 40 29 96 34 124 9 51 9 51 -9 30 -9
-12 -32 -67 -50 -122 l-33 -100 44 -67 c23 -37 49 -73 57 -80 25 -26 33 -76
21 -139 -16 -84 -24 -96 -40 -63 -9 22 -9 34 5 67 21 54 12 52 -15 -1 -28 -56
-26 -54 -50 -32 -44 40 -52 71 -46 179 4 75 3 94 -5 75 -5 -14 -12 -65 -15
-115 l-5 -90 91 -79 c79 -69 93 -86 106 -130 8 -27 15 -72 15 -100 0 -48 -1
-49 -17 -33 -13 12 -20 41 -24 95 l-6 77 -1 -82 c-1 -46 -5 -83 -9 -83 -5 0
-22 9 -40 20 -43 26 -71 84 -88 183 -8 44 -20 86 -26 91 -16 15 -3 -125 17
-193 14 -48 19 -53 77 -82 34 -17 69 -38 79 -46 9 -8 23 -16 32 -17 26 -4 57
-39 88 -99 33 -67 33 -81 -2 -64 -18 9 -28 25 -36 64 -6 28 -19 61 -28 74 -20
29 -21 22 -2 -17 8 -16 17 -50 20 -76 l7 -47 -48 16 c-66 22 -78 35 -108 113
-14 38 -33 74 -41 80 -19 17 -18 13 16 -76 16 -43 28 -80 25 -82 -3 -3 -28 44
-56 103 -32 68 -47 111 -40 113 8 3 5 16 -8 40 -15 28 -21 62 -24 132 -2 52
-7 103 -11 113 -6 13 -5 16 7 12 12 -5 13 0 4 34 -9 35 -7 51 17 125 20 59 27
95 23 118 l-7 33 20 -24 20 -23 0 34 c0 47 75 198 152 306 58 81 63 86 69 62
4 -14 13 -41 22 -60z m1677 -10 c6 -15 10 -43 8 -61 -3 -34 -3 -34 -53 -34
-36 1 -62 8 -90 25 l-40 25 54 5 c61 7 85 28 78 72 -3 26 -2 27 14 12 9 -8 22
-28 29 -44z m82 -23 l20 -40 -31 22 c-17 13 -38 36 -46 52 l-15 29 26 -12 c14
-7 35 -30 46 -51z m4 -116 c13 -65 -27 -87 -93 -52 -47 25 -108 76 -78 66 88
-29 131 -8 121 60 l-6 40 25 -40 c14 -22 28 -55 31 -74z m-762 76 c22 -16 31
-83 17 -119 -10 -26 -15 -28 -65 -28 -72 0 -105 -26 -113 -90 -8 -60 -18 -70
-69 -70 -84 0 -114 -31 -114 -119 0 -59 17 -77 84 -84 67 -7 86 -28 87 -100 2
-78 -15 -97 -87 -97 -46 0 -56 -3 -70 -25 -24 -36 -13 -103 21 -132 19 -17 39
-23 74 -23 57 0 66 -9 74 -70 8 -62 41 -90 106 -90 62 0 76 -16 76 -87 0 -65
-9 -73 -87 -73 -76 0 -88 6 -88 45 0 81 -34 115 -113 115 -57 0 -66 8 -73 66
-9 69 -35 94 -95 94 -59 0 -79 23 -79 91 0 62 -18 76 -104 81 -89 5 -99 17
-94 116 4 84 10 92 81 92 52 0 101 20 111 45 3 9 6 40 6 68 0 67 18 87 80 87
65 0 81 16 91 85 4 32 14 62 21 66 7 5 34 9 60 9 25 0 54 3 63 6 23 9 45 57
45 98 0 23 6 39 18 45 24 15 115 13 136 -2z m826 -202 c0 -23 -5 -46 -12 -53
-29 -29 -103 -1 -145 57 l-23 30 46 -16 c66 -22 94 -8 94 49 l1 43 19 -35 c11
-19 19 -53 20 -75z m66 44 c6 -19 15 -50 18 -69 6 -30 5 -32 -5 -15 -6 11 -22
32 -36 46 -13 14 -27 43 -30 65 l-6 39 24 -16 c13 -9 29 -31 35 -50z m-1777
24 c-6 -16 -22 -77 -34 -138 -13 -60 -24 -96 -25 -80 -1 17 -5 39 -9 49 -6 16
-11 13 -35 -25 -18 -30 -25 -36 -21 -19 13 50 115 240 130 240 2 0 0 -12 -6
-27z m1830 6 c30 -10 31 -13 31 -65 0 -30 7 -71 15 -91 12 -29 12 -33 1 -24
-18 15 -86 152 -86 174 0 20 -1 20 39 6z m-733 -44 c14 -9 23 -30 27 -57 8
-58 34 -78 102 -78 34 0 57 -5 65 -15 13 -16 19 -123 7 -142 -5 -9 -33 -13
-76 -13 -43 0 -72 5 -78 13 -6 6 -13 34 -16 61 -6 62 -24 76 -98 76 -74 0 -89
-14 -89 -85 0 -69 28 -95 101 -95 55 0 69 -15 69 -74 0 -77 34 -106 123 -106
29 0 58 -5 65 -12 7 -7 12 -41 12 -83 0 -42 -5 -76 -12 -83 -7 -7 -34 -12 -61
-12 -48 0 -85 -13 -99 -34 -4 -6 -8 -28 -8 -48 0 -25 -7 -45 -21 -59 -18 -18
-30 -21 -90 -17 -37 2 -71 7 -75 11 -4 3 -11 30 -15 59 -10 64 -27 78 -92 78
-78 0 -87 9 -87 90 0 80 9 90 82 90 63 0 84 -19 91 -82 8 -65 24 -78 96 -78
73 0 91 17 91 85 0 70 -23 95 -90 95 -63 0 -80 17 -80 81 0 73 -29 99 -109 99
-80 0 -91 12 -91 99 0 77 9 91 60 91 45 0 101 16 112 32 4 7 8 29 8 49 0 37
15 63 40 72 32 11 116 7 136 -8z m-1211 -92 c-19 -42 -39 -108 -45 -147 -18
-107 -20 -116 -29 -116 -25 0 -20 60 10 146 26 76 83 194 94 194 1 0 -12 -35
-30 -77z m1872 -42 c4 -45 2 -61 -12 -74 -27 -27 -55 -20 -101 27 -52 51 -58
74 -14 51 16 -8 35 -15 41 -15 25 0 59 43 59 74 1 52 21 4 27 -63z m-1744 -1
c9 13 17 21 17 17 0 -13 -42 -97 -51 -103 -11 -6 -12 71 -2 117 l8 34 5 -45 5
-45 18 25z m1844 -109 l3 -56 -19 40 c-11 22 -20 58 -20 80 l-1 39 17 -24 c9
-13 18 -48 20 -79z m-1937 -58 c-1 -131 -2 -146 -15 -129 -8 10 -16 24 -18 30
-7 20 -18 -1 -27 -51 -7 -45 -8 -44 -9 32 0 44 6 105 14 135 14 53 44 130 52
130 1 0 3 -66 3 -147z m1875 9 c-17 -90 -88 -85 -136 10 -27 54 -24 61 17 33
20 -14 41 -25 46 -25 25 0 49 24 60 63 l13 42 3 -45 c2 -24 1 -60 -3 -78z
m112 96 c18 -21 20 -32 15 -106 -5 -90 -15 -92 -31 -7 -26 137 -23 156 16 113z
m-1931 -102 c3 -13 4 -37 2 -52 -3 -24 -5 -19 -14 24 -11 50 0 76 12 28z m-7
-176 l-1 -55 -14 65 c-7 36 -13 83 -13 105 l1 40 14 -50 c7 -27 13 -75 13
-105z m1840 48 c-17 -42 -55 -69 -82 -59 -27 10 -53 54 -63 106 l-7 40 27 -32
c42 -50 105 -42 122 14 l8 28 4 -34 c2 -18 -2 -46 -9 -63z m-335 56 c10 -10
16 -33 16 -64 0 -56 -23 -80 -75 -80 -54 0 -75 24 -75 85 0 41 4 56 18 64 27
16 98 13 116 -5z m405 -69 c0 -16 -6 -43 -14 -60 -13 -30 -13 -29 -14 27 -1
66 7 97 20 76 5 -7 9 -26 8 -43z m-1892 -225 l34 -75 -39 38 c-44 43 -54 37
-46 -30 4 -38 4 -38 -23 17 -22 47 -27 71 -30 160 l-4 105 37 -70 c21 -38 52
-104 71 -145z m1735 116 c18 -5 30 1 52 26 l29 32 -6 -33 c-14 -68 -64 -108
-104 -83 -18 11 -33 59 -33 100 l1 37 19 -36 c11 -20 29 -39 42 -43z m-1887
34 c16 -32 20 -90 6 -90 -14 0 -40 75 -34 99 7 27 10 27 28 -9z m1843 -132
c20 -24 55 -23 77 2 27 30 29 17 6 -28 -50 -97 -121 -93 -121 7 0 47 11 75 19
49 2 -7 10 -21 19 -30z m141 -52 c-18 -25 -34 -45 -35 -43 -8 7 19 94 34 110
16 18 17 18 25 -1 7 -16 2 -31 -24 -66z m66 -22 c5 -32 2 -41 -23 -68 -16 -17
-37 -44 -46 -61 l-17 -30 6 38 c7 44 54 157 65 157 4 0 11 -16 15 -36z m-261
-25 c3 -14 16 -30 29 -36 20 -9 28 -8 47 10 l22 22 -15 -31 c-19 -37 -84 -97
-100 -91 -17 5 -20 74 -6 126 7 25 14 41 15 35 1 -5 5 -21 8 -35z m-1583 -46
c20 -21 50 -61 69 -88 26 -38 29 -47 14 -41 -54 22 -57 21 -52 -18 l4 -37 -18
23 c-30 39 -78 141 -85 182 -6 36 -5 38 14 28 11 -6 35 -28 54 -49z m-86 -63
l7 -35 -27 25 c-31 29 -40 44 -49 85 l-7 30 34 -35 c20 -20 38 -50 42 -70z
m1766 -54 c-17 -16 -33 -28 -36 -25 -8 8 16 70 39 102 l21 29 3 -38 c3 -31 -2
-43 -27 -68z m-149 0 c13 -8 26 -7 50 2 l32 12 -35 -36 c-40 -42 -85 -68 -105
-60 -21 8 -17 59 9 112 l22 47 5 -33 c3 -18 13 -38 22 -44z m-1771 -17 c41
-11 79 -25 86 -31 7 -5 16 -7 21 -4 6 3 29 -12 53 -34 38 -34 41 -39 22 -40
-13 0 -24 8 -28 19 -3 10 -15 27 -26 37 -21 18 -21 18 1 -18 l22 -38 -65 0
-66 0 -37 45 c-20 25 -39 44 -41 41 -2 -2 5 -23 17 -46 12 -23 16 -40 10 -38
-6 2 -22 30 -36 63 -14 33 -28 67 -31 75 -6 13 -4 13 9 2 9 -7 49 -22 89 -33z
m1933 -75 c-38 -35 -54 -42 -54 -23 0 15 37 77 64 107 l21 24 3 -37 c3 -32 -2
-42 -34 -71z m-1569 37 c22 -10 51 -30 64 -45 l24 -26 -61 0 c-61 0 -62 0 -77
36 -25 61 -18 66 50 35z m1303 -9 c-1 -15 1 -33 6 -40 9 -15 51 -16 79 0 20
10 21 10 8 -5 -10 -13 -31 -17 -87 -17 -41 0 -74 3 -74 6 0 8 60 84 66 84 2 0
3 -13 2 -28z m-1396 -37 c14 -19 8 -26 -19 -23 -20 2 -29 11 -39 41 l-13 38
32 -23 c18 -12 35 -27 39 -33z m1728 5 c0 -29 -2 -30 -42 -30 l-43 1 33 29
c41 38 52 38 52 0z m-414 -345 l149 -166 6 114 c6 131 22 171 79 200 31 15 63
17 275 15 l240 -3 0 -40 0 -40 -245 -3 c-216 -2 -246 -4 -257 -19 -9 -12 -13
-67 -13 -190 l0 -173 -34 0 c-32 0 -47 13 -188 166 l-153 166 -3 -166 -2 -166
-40 0 -40 0 0 235 0 235 38 0 c37 0 44 -6 188 -165z m1069 -70 l0 -230 -42 -3
-43 -3 0 190 0 191 -95 0 -95 0 0 45 0 46 138 -3 137 -3 0 -230z m190 190 l0
-40 -70 0 c-69 0 -70 0 -73 28 -6 53 1 58 75 55 l68 -3 0 -40z m-3335 28 c0
-5 -41 -57 -90 -117 l-88 -110 94 -108 95 -108 -43 0 c-42 0 -46 3 -112 80
-37 44 -72 80 -76 80 -4 0 -36 -36 -71 -80 -62 -77 -65 -80 -106 -80 l-43 0 0
125 0 125 35 0 34 0 3 -80 3 -80 50 62 c221 273 244 298 280 298 19 0 35 -3
35 -7z m432 -3 c54 -15 78 -51 78 -116 0 -29 -5 -64 -11 -78 -14 -30 -65 -56
-108 -56 -17 0 -31 -3 -31 -7 0 -3 28 -38 62 -77 103 -118 97 -106 50 -106
-40 0 -44 4 -123 95 l-82 95 -68 0 -69 0 0 -95 0 -95 -30 0 -30 0 0 125 0 125
172 0 c145 0 174 3 190 17 21 19 25 82 6 101 -8 8 -65 12 -190 12 l-178 0 0
35 0 35 163 0 c89 0 179 -5 199 -10z m208 -68 c0 -120 3 -122 160 -122 161 0
160 -1 160 116 l0 85 33 -3 32 -3 0 -80 c0 -156 -24 -175 -218 -175 -75 0
-147 4 -161 10 -47 17 -66 64 -66 163 l0 87 30 0 30 0 0 -78z m824 64 c61 -25
87 -89 66 -164 -18 -68 -39 -76 -219 -82 l-156 -5 -3 -92 -3 -93 -29 0 -30 0
0 125 0 125 174 0 c195 0 206 4 206 65 0 67 7 65 -196 65 l-184 0 0 35 0 35
170 0 c123 0 180 -4 204 -14z m206 -211 l0 -225 -35 0 -35 0 0 225 0 225 35 0
35 0 0 -225z m760 121 c6 -8 10 -25 8 -38 -6 -42 -78 -32 -78 11 0 37 46 55
70 27z m330 -126 l0 -40 -160 0 -160 0 0 -50 0 -50 193 -2 192 -3 0 -40 0 -40
-232 -3 -233 -2 0 135 0 135 200 0 200 0 0 -40z m-1930 -160 l0 -60 -30 0 -30
0 0 60 0 60 30 0 30 0 0 -60z m970 -30 l0 -40 -40 0 -40 0 0 40 0 40 40 0 40
0 0 -40z m-1653 -249 c167 -143 446 -298 668 -370 507 -165 1052 -128 1520
103 151 75 321 183 418 267 37 33 73 59 78 59 14 0 -109 -104 -196 -166 -221
-159 -531 -292 -797 -343 -242 -47 -551 -45 -791 3 -349 71 -709 253 -977 493
-9 8 -10 13 -3 13 7 0 42 -26 80 -59z m164 -1 c242 -180 551 -305 864 -351
116 -18 434 -18 550 0 315 46 649 184 886 367 31 24 67 44 79 44 18 0 12 -8
-29 -40 -254 -201 -579 -342 -911 -396 -145 -24 -456 -24 -600 0 -324 53 -631
182 -879 369 -88 67 -89 67 -63 67 12 0 58 -27 103 -60z"/>
<path d="M2490 3931 c0 -15 6 -21 21 -21 25 0 22 33 -4 38 -12 2 -17 -3 -17
-17z"/>
<path d="M2476 3875 c-3 -9 0 -18 9 -21 21 -8 47 3 43 19 -7 18 -45 20 -52 2z"/>
<path d="M2200 3930 c0 -5 9 -10 20 -10 11 0 20 5 20 10 0 6 -9 10 -20 10 -11
0 -20 -4 -20 -10z"/>
<path d="M1890 3904 c-10 -12 -8 -14 14 -14 28 0 35 14 12 23 -8 3 -20 -1 -26
-9z"/>
<path d="M2667 3874 c-11 -11 3 -24 25 -24 17 0 18 2 8 15 -13 16 -23 19 -33
9z"/>
<path d="M2930 3769 c-23 -45 -20 -59 15 -59 33 0 60 41 46 68 -20 37 -40 34
-61 -9z"/>
<path d="M1335 3689 c-4 -6 -4 -13 -1 -16 8 -8 36 5 36 17 0 13 -27 13 -35 -1z"/>
<path d="M3193 3548 c2 -7 10 -13 17 -13 7 0 15 6 18 13 2 7 -5 12 -18 12 -13
0 -20 -5 -17 -12z"/>
<path d="M1706 3319 c-15 -9 -16 -13 -5 -20 28 -17 109 0 109 23 0 12 -82 9
-104 -3z"/>
<path d="M1113 3465 c-3 -9 -3 -18 0 -21 9 -9 27 6 27 22 0 19 -19 18 -27 -1z"/>
<path d="M3340 3461 c-14 -27 -13 -38 5 -44 21 -9 58 25 50 46 -9 23 -42 22
-55 -2z"/>
<path d="M3476 3327 c-19 -14 -19 -48 1 -54 17 -6 54 34 47 52 -7 18 -24 19
-48 2z"/>
<path d="M3442 2520 c7 -10 14 -18 15 -16 6 6 -9 36 -18 36 -5 0 -4 -9 3 -20z"/>
<path d="M817 3193 c-10 -10 -8 -33 3 -33 5 0 14 9 20 20 8 15 8 20 -3 20 -8
0 -17 -3 -20 -7z"/>
<path d="M700 3044 c-9 -10 -10 -18 -2 -26 12 -12 32 -2 32 17 0 21 -16 26
-30 9z"/>
<path d="M746 3014 c-7 -19 1 -34 19 -34 15 0 28 27 19 41 -9 14 -31 10 -38
-7z"/>
<path d="M1253 2774 c-33 -51 -39 -82 -23 -119 8 -19 9 -19 9 -1 1 10 13 43
27 72 14 29 24 63 22 76 -3 20 -7 16 -35 -28z"/>
<path d="M2640 1135 c0 -208 1 -215 20 -215 19 0 20 7 20 169 0 94 4 172 9
175 5 3 80 -73 167 -169 131 -144 164 -174 187 -175 l27 0 0 180 c0 167 1 180
19 190 12 6 112 10 255 10 l236 0 0 25 0 25 -235 0 c-160 0 -242 -4 -260 -12
-46 -21 -59 -60 -65 -203 -3 -81 -9 -128 -15 -126 -5 3 -79 81 -164 173 -116
128 -159 168 -177 168 l-24 0 0 -215z"/>
<path d="M3660 1325 c0 -25 0 -25 95 -25 l95 0 0 -190 0 -190 25 0 25 0 0 215
0 215 -120 0 -120 0 0 -25z"/>
<path d="M3980 1325 c0 -24 3 -25 55 -25 52 0 55 1 55 25 0 24 -3 25 -55 25
-52 0 -55 -1 -55 -25z"/>
<path d="M3150 1231 c0 -21 26 -36 36 -20 9 15 -3 39 -21 39 -8 0 -15 -9 -15
-19z"/>
<path d="M3150 1035 l0 -115 216 0 215 0 -3 23 c-3 22 -5 22 -193 27 l-190 5
0 65 0 65 158 3 c149 2 157 4 157 22 0 19 -7 20 -180 20 l-180 0 0 -115z"/>
<path d="M2510 946 c0 -21 5 -26 26 -26 21 0 25 4 22 23 -2 14 -11 23 -25 25
-19 3 -23 -1 -23 -22z"/>
</g>
</svg>
